<svg width="537" height="97" viewBox="0 0 537 97" fill="none" xmlns="http://www.w3.org/2000/svg">
<path fill-rule="evenodd" clip-rule="evenodd" d="M59.7464 45.1366L54.8522 56.9358C54.1783 58.5604 53.1255 60.0545 51.8337 58.8235C51.4493 58.4572 51.1227 57.966 51.1836 57.4262L52.2628 47.8505C52.2655 47.8235 52.2763 47.7976 52.2941 47.7757C52.312 47.7538 52.3361 47.7367 52.364 47.7262L59.521 44.9438C59.5514 44.9316 59.5851 44.9279 59.6178 44.9331C59.6505 44.9384 59.6808 44.9523 59.7046 44.9731C59.7548 45.0161 59.7706 45.0782 59.7464 45.1366ZM50.4655 69.3557V72.6358C50.4664 72.7142 50.5015 72.7891 50.5631 72.8445C50.6247 72.9 50.7079 72.9315 50.795 72.9323H54.8602C54.9472 72.9314 55.0305 72.8998 55.092 72.8444C55.1536 72.789 55.1887 72.7142 55.1897 72.6358V69.3557C55.1896 69.3154 55.1718 69.2768 55.1401 69.2483C55.1084 69.2198 55.0655 69.2037 55.0207 69.2037H50.6347C50.5899 69.2037 50.5469 69.2197 50.5152 69.2482C50.4835 69.2767 50.4656 69.3154 50.4655 69.3557ZM28.1775 69.3557V72.6358C28.1775 72.7969 28.3281 72.9323 28.507 72.9323H32.5721C32.6592 72.9314 32.7424 72.8998 32.804 72.8444C32.8656 72.789 32.9006 72.7142 32.9016 72.6358V69.3557C32.9016 69.3154 32.8837 69.2768 32.852 69.2483C32.8204 69.2198 32.7774 69.2037 32.7326 69.2037H28.3467C28.3018 69.2037 28.2588 69.2197 28.2271 69.2482C28.1954 69.2767 28.1775 69.3154 28.1775 69.3557ZM83.0486 20.4616C80.7717 15.525 68.2215 17.1996 61.992 18.3421C61.9581 18.348 61.9271 18.3633 61.9032 18.3858C61.8794 18.4083 61.8639 18.4369 61.8589 18.4676C61.8532 18.4983 61.8582 18.5299 61.8734 18.5578C61.8885 18.5858 61.9129 18.6089 61.9432 18.6238C62.624 18.9681 63.2269 19.4244 63.7204 19.9689C63.7394 19.9904 63.7645 20.0068 63.7931 20.0162C63.8217 20.0256 63.8526 20.0277 63.8825 20.0223C67.8867 19.3486 71.4031 19.0307 74.2404 19.093C82.0984 19.2655 83.269 21.9904 77.8411 27.0998C76.3567 28.4971 74.4339 29.9857 72.1384 31.5212C72.1142 31.537 72.0951 31.5583 72.0833 31.583C72.0715 31.6077 72.0674 31.6348 72.0714 31.6614C72.0745 31.6882 72.0857 31.7136 72.1037 31.7351C72.1216 31.7566 72.1457 31.7733 72.1734 31.7834L74.1455 32.5332C74.2031 32.555 74.2647 32.548 74.3143 32.5137C76.3352 31.1153 78.056 29.7532 79.43 28.4598C82.667 25.4131 84.0494 22.6312 83.0486 20.4616ZM70.2142 32.7582C69.4376 32.5488 68.652 32.4542 67.8668 32.4745C66.038 32.5216 64.8618 33.1207 63.3253 33.8168C63.2996 33.8289 63.2709 33.8346 63.242 33.8335C63.2131 33.8324 63.185 33.8244 63.1606 33.8104C63.1357 33.7971 63.1152 33.7781 63.1011 33.7553C63.087 33.7326 63.0798 33.7069 63.0803 33.6808V24.8406C63.0803 21.7833 60.3044 19.2857 56.9065 19.2857H26.4606C23.063 19.2857 20.2871 21.7833 20.2871 24.8406V51.5319C20.2873 51.5672 20.2738 51.6016 20.2488 51.6289C20.2238 51.6562 20.1889 51.6747 20.1503 51.6813C17.4921 52.1471 15.0346 52.4612 12.8314 52.6164C7.04099 53.0244 3.17459 52.395 2.34543 50.5975C1.65753 49.1064 3.1312 46.8056 6.233 44.0733C9.06374 41.5796 13.1981 38.8312 18.2876 36.0656C18.3128 36.0523 18.3337 36.0333 18.348 36.0104C18.3624 35.9875 18.3697 35.9616 18.3693 35.9354V33.9931C18.3693 33.9369 18.3383 33.8888 18.2841 33.861C18.23 33.8332 18.168 33.8337 18.1142 33.8623C12.4371 36.8811 7.82069 39.914 4.69564 42.6669C0.925028 45.9887 -0.753769 49.0302 0.318516 51.355C1.55879 54.0439 6.216 55.0647 12.9945 54.5871C18.2032 54.22 25.456 52.5654 32.2271 50.6729C32.364 50.6347 32.5037 50.6038 32.6374 50.5579C34.8001 49.8127 30.2993 44.6596 29.1711 43.0164C29.1415 42.973 29.1373 42.9239 29.1595 42.8771C29.1817 42.8303 29.2237 42.7989 29.2791 42.7879C29.3356 42.7769 29.396 42.7815 29.4672 42.815L36.0966 45.935C37.57 46.6282 39.0867 47.0711 40.569 46.3965L65.6654 34.9749C67.1377 34.3049 68.682 34.2656 70.2199 34.8566L74.1918 36.3832C74.5408 36.5173 74.5387 36.9567 74.1934 37.0863C56.7753 43.858 39.1887 52.1928 20.4243 55.4139C20.3856 55.4203 20.3506 55.4387 20.3255 55.466C20.3004 55.4933 20.2867 55.5277 20.2869 55.5631V62.1879C20.2869 65.245 23.0628 67.7428 26.4605 67.7428H56.9062C60.3038 67.7428 63.0799 65.2452 63.0799 62.1879V43.6601C63.0799 43.5982 63.1186 43.5451 63.1819 43.5206L75.0607 38.9025C77.1694 38.0848 77.1649 35.38 75.0505 34.5674L72.6371 33.6399L72.6342 33.6388L70.2288 32.7632L70.2142 32.7582ZM48.7503 17.4188V7.43858C48.7503 7.39658 48.7669 7.36051 48.8001 7.33085C48.8156 7.31646 48.8343 7.30511 48.8549 7.29748C48.8755 7.28985 48.8977 7.28612 48.92 7.2865C49.7058 7.28884 50.3603 7.28697 51.0281 6.68614C51.2395 6.49662 51.4072 6.2714 51.5216 6.02342C51.6361 5.77543 51.6949 5.50955 51.6948 5.24105V2.04514C51.6948 0.918269 50.6743 0 49.422 0H33.9455C32.6931 0 31.6725 0.918269 31.6725 2.04514V5.24105C31.6725 6.36777 32.6931 7.28603 33.9455 7.28603H34.448C34.5412 7.28603 34.6171 7.35442 34.6171 7.43812V17.4187C34.6171 17.5025 34.6931 17.5708 34.7861 17.5708H36.6466C36.6914 17.5707 36.7343 17.5546 36.766 17.5261C36.7977 17.4976 36.8155 17.459 36.8156 17.4187V7.43812C36.8156 7.35427 36.8916 7.28603 36.9846 7.28603H46.3822C46.4754 7.28603 46.5512 7.35442 46.5512 7.43812V17.4187C46.5512 17.5025 46.6272 17.5708 46.7202 17.5708H48.5807C48.6029 17.5708 48.625 17.5669 48.6455 17.5593C48.666 17.5517 48.6847 17.5405 48.7005 17.5264C48.7162 17.5123 48.7287 17.4955 48.7373 17.4771C48.7458 17.4586 48.7502 17.4388 48.7503 17.4188ZM36.9541 36.1577L36.9468 36.1533C35.3832 35.2593 36.051 34.2183 37.8929 34.6823L37.8992 34.6837L53.2915 38.0035C53.362 38.0186 53.412 38.0695 53.4201 38.1343C53.4283 38.1991 53.3924 38.2587 53.3273 38.2876L45.7451 41.6781C45.7178 41.6907 45.6872 41.6962 45.6566 41.6941C45.626 41.6919 45.5967 41.6822 45.5719 41.6659L36.9541 36.1577Z" fill="#0FAE13"/>
<path d="M497.31 97L507.28 69.3515L507.472 77.4863L484.894 21.463H496.926L512.937 62.9115H509.869L525.448 21.463H537L508.143 97H497.31Z" fill="#0FAE13"/>
<path d="M450.621 76.1622C446.779 76.1622 443.527 75.4249 440.867 73.9505C438.207 72.4425 436.188 70.4486 434.808 67.9687C433.462 65.4889 432.789 62.7578 432.789 59.7753C432.789 57.1614 433.216 54.8156 434.07 52.7379C434.923 50.6267 436.237 48.8171 438.01 47.3091C439.784 45.7676 442.082 44.511 444.907 43.5392C447.041 42.8354 449.537 42.1987 452.394 41.629C455.284 41.0593 458.404 40.5399 461.753 40.0708C465.136 39.5681 468.666 39.0319 472.344 38.4622L468.108 40.9253C468.141 37.172 467.32 34.4074 465.645 32.6313C463.97 30.8552 461.146 29.9672 457.172 29.9672C454.775 29.9672 452.46 30.5368 450.227 31.6762C447.994 32.8156 446.434 34.776 445.547 37.5574L434.71 34.089C436.024 29.498 438.519 25.8118 442.197 23.0304C445.908 20.2489 450.9 18.8582 457.172 18.8582C461.901 18.8582 466.055 19.6457 469.635 21.2208C473.247 22.7958 475.924 25.3761 477.664 28.9618C478.617 30.872 479.191 32.8324 479.388 34.843C479.585 36.8202 479.684 38.9816 479.684 41.3274V74.6542H469.29V62.8918L471.014 64.8019C468.617 68.7227 465.809 71.6047 462.591 73.4478C459.405 75.2574 455.415 76.1622 450.621 76.1622ZM452.985 66.511C455.678 66.511 457.977 66.0251 459.882 65.0533C461.786 64.0814 463.297 62.8918 464.413 61.4843C465.563 60.0769 466.335 58.7532 466.729 57.5133C467.353 55.9718 467.697 54.2124 467.763 52.2353C467.862 50.2246 467.911 48.5993 467.911 47.3594L471.556 48.4653C467.977 49.035 464.906 49.5376 462.345 49.9733C459.783 50.4089 457.583 50.8278 455.744 51.2299C453.905 51.5986 452.279 52.0175 450.867 52.4866C449.488 52.9893 448.322 53.5757 447.37 54.2459C446.417 54.9162 445.678 55.6869 445.153 56.5582C444.66 57.4295 444.414 58.4516 444.414 59.6245C444.414 60.9649 444.742 62.1546 445.399 63.1934C446.056 64.1987 447.008 65.003 448.256 65.6062C449.537 66.2094 451.113 66.511 452.985 66.511Z" fill="#0FAE13"/>
<path d="M370.98 73.5575L354.63 21.463L366.323 21.5592L376.776 54.9248L387.378 21.5592H397.436L407.988 54.9248L418.491 21.5592H430.184L413.834 73.5575H404.52L392.382 37.7846L380.294 73.5575H370.98Z" fill="#0FAE13"/>
<path d="M320.357 76.1622C316.515 76.1622 313.263 75.4249 310.603 73.9505C307.943 72.4425 305.924 70.4486 304.545 67.9687C303.198 65.4889 302.525 62.7578 302.525 59.7753C302.525 57.1614 302.952 54.8156 303.806 52.7379C304.66 50.6267 305.973 48.8171 307.746 47.3091C309.52 45.7676 311.819 44.511 314.643 43.5392C316.777 42.8354 319.273 42.1987 322.13 41.629C325.02 41.0593 328.14 40.5399 331.49 40.0708C334.872 39.5681 338.402 39.0319 342.08 38.4622L337.844 40.9253C337.877 37.172 337.056 34.4074 335.381 32.6313C333.706 30.8552 330.882 29.9672 326.908 29.9672C324.511 29.9672 322.196 30.5368 319.963 31.6762C317.73 32.8156 316.17 34.776 315.283 37.5574L304.446 34.089C305.76 29.498 308.255 25.8118 311.933 23.0304C315.644 20.2489 320.636 18.8582 326.908 18.8582C331.637 18.8582 335.791 19.6457 339.371 21.2208C342.983 22.7958 345.66 25.3761 347.4 28.9618C348.353 30.872 348.927 32.8324 349.124 34.843C349.321 36.8202 349.42 38.9816 349.42 41.3274V74.6542H339.026V62.8918L340.75 64.8019C338.353 68.7227 335.545 71.6047 332.327 73.4478C329.141 75.2574 325.151 76.1622 320.357 76.1622ZM322.721 66.511C325.414 66.511 327.713 66.0251 329.618 65.0533C331.522 64.0814 333.033 62.8918 334.15 61.4843C335.299 60.0769 336.071 58.7532 336.465 57.5133C337.089 55.9718 337.433 54.2124 337.499 52.2353C337.598 50.2246 337.647 48.5993 337.647 47.3594L341.292 48.4653C337.713 49.035 334.642 49.5376 332.081 49.9733C329.519 50.4089 327.319 50.8278 325.48 51.2299C323.641 51.5986 322.015 52.0175 320.603 52.4866C319.224 52.9893 318.058 53.5757 317.106 54.2459C316.153 54.9162 315.414 55.6869 314.889 56.5582C314.396 57.4295 314.15 58.4516 314.15 59.6245C314.15 60.9649 314.479 62.1546 315.135 63.1934C315.792 64.1987 316.744 65.003 317.992 65.6062C319.273 66.2094 320.849 66.511 322.721 66.511Z" fill="#0FAE13"/>
<path d="M279.941 73.5575V47.9557C279.941 46.2817 279.824 44.4272 279.592 42.3922C279.359 40.3572 278.811 38.4042 277.947 36.5333C277.116 34.6296 275.853 33.0705 274.158 31.8561C272.496 30.6416 270.237 30.0344 267.379 30.0344C265.85 30.0344 264.338 30.2806 262.842 30.7729C261.347 31.2653 259.984 32.1187 258.755 33.3331C257.558 34.5147 256.595 36.1559 255.863 38.2565C255.132 40.3244 254.767 42.983 254.767 46.2325L247.638 43.2292C247.638 38.6996 248.519 34.5968 250.28 30.9206C252.075 27.2445 254.7 24.3232 258.156 22.1569C261.613 19.9578 265.867 18.8582 270.918 18.8582C274.906 18.8582 278.196 19.5147 280.788 20.8276C283.38 22.1405 285.441 23.8145 286.969 25.8495C288.498 27.8845 289.628 30.0508 290.359 32.3484C291.09 34.646 291.555 36.8287 291.755 38.8966C291.988 40.9316 292.104 42.5891 292.104 43.8692V73.5575H279.941ZM242.604 73.5575V20.3845H253.321V36.878H254.767V73.5575H242.604Z" fill="#0FAE13"/>
<path d="M203.119 76.1622C199.277 76.1622 196.026 75.4249 193.366 73.9505C190.706 72.4425 188.686 70.4486 187.307 67.9687C185.961 65.4889 185.287 62.7578 185.287 59.7753C185.287 57.1614 185.714 54.8156 186.568 52.7379C187.422 50.6267 188.736 48.8171 190.509 47.3091C192.282 45.7676 194.581 44.511 197.405 43.5392C199.54 42.8354 202.036 42.1987 204.893 41.629C207.783 41.0593 210.902 40.5399 214.252 40.0708C217.634 39.5681 221.165 39.0319 224.843 38.4622L220.606 40.9253C220.639 37.172 219.818 34.4074 218.143 32.6313C216.469 30.8552 213.644 29.9672 209.671 29.9672C207.274 29.9672 204.958 30.5368 202.725 31.6762C200.492 32.8156 198.932 34.776 198.046 37.5574L187.209 34.089C188.522 29.498 191.018 25.8118 194.696 23.0304C198.407 20.2489 203.398 18.8582 209.671 18.8582C214.4 18.8582 218.554 19.6457 222.133 21.2208C225.746 22.7958 228.422 25.3761 230.163 28.9618C231.115 30.872 231.69 32.8324 231.887 34.843C232.084 36.8202 232.182 38.9816 232.182 41.3274V74.6542H221.789V62.8918L223.513 64.8019C221.115 68.7227 218.308 71.6047 215.089 73.4478C211.904 75.2574 207.914 76.1622 203.119 76.1622ZM205.484 66.511C208.177 66.511 210.475 66.0251 212.38 65.0533C214.285 64.0814 215.795 62.8918 216.912 61.4843C218.061 60.0769 218.833 58.7532 219.227 57.5133C219.851 55.9718 220.196 54.2124 220.262 52.2353C220.36 50.2246 220.409 48.5993 220.409 47.3594L224.055 48.4653C220.475 49.035 217.405 49.5376 214.843 49.9733C212.282 50.4089 210.081 50.8278 208.242 51.2299C206.403 51.5986 204.778 52.0175 203.366 52.4866C201.986 52.9893 200.821 53.5757 199.868 54.2459C198.916 54.9162 198.177 55.6869 197.652 56.5582C197.159 57.4295 196.913 58.4516 196.913 59.6245C196.913 60.9649 197.241 62.1546 197.898 63.1934C198.555 64.1987 199.507 65.003 200.755 65.6062C202.036 66.2094 203.612 66.511 205.484 66.511Z" fill="#0FAE13"/>
<path d="M161.84 73.5575V0.625148H172.261V73.5575H161.84Z" fill="#0FAE13"/>
<path d="M96.7079 73.5575V3.22987H125.494C126.172 3.22987 127.042 3.26243 128.107 3.32755C129.171 3.36011 130.155 3.45779 131.058 3.62058C135.09 4.2392 138.412 5.5904 141.024 7.67419C143.669 9.75797 145.62 12.3953 146.878 15.586C148.168 18.7443 148.813 22.2607 148.813 26.1352C148.813 29.9771 148.168 33.4935 146.878 36.6843C145.588 39.8425 143.621 42.4636 140.976 44.5473C138.363 46.6311 135.057 47.9823 131.058 48.6009C130.155 48.7312 129.155 48.8289 128.058 48.894C126.994 48.9591 126.139 48.9916 125.494 48.9916H108.368V73.5575H96.7079ZM108.368 38.003H125.01C125.655 38.003 126.381 37.9704 127.188 37.9053C127.994 37.8402 128.736 37.7099 129.413 37.5146C131.348 37.0262 132.864 36.1634 133.961 34.9261C135.09 33.6889 135.88 32.2888 136.331 30.726C136.815 29.1632 137.057 27.6329 137.057 26.1352C137.057 24.6375 136.815 23.1072 136.331 21.5444C135.88 19.949 135.09 18.5326 133.961 17.2954C132.864 16.0581 131.348 15.1953 129.413 14.7069C128.736 14.5116 127.994 14.3976 127.188 14.3651C126.381 14.3 125.655 14.2674 125.01 14.2674H108.368V38.003Z" fill="#0FAE13"/>
</svg>
