<svg width="30" height="28" viewBox="0 0 30 28" fill="none" xmlns="http://www.w3.org/2000/svg">
<path fill-rule="evenodd" clip-rule="evenodd" d="M20.8056 17.2171L19.1012 21.7178C18.8666 22.3375 18.4999 22.9074 18.0501 22.4378C17.9162 22.2981 17.8025 22.1107 17.8237 21.9048L18.1995 18.2523C18.2005 18.2419 18.2042 18.2321 18.2104 18.2237C18.2166 18.2154 18.2251 18.2088 18.2348 18.2049L20.7271 17.1435C20.7376 17.1389 20.7494 17.1374 20.7608 17.1394C20.7722 17.1414 20.7827 17.1467 20.791 17.1547C20.8085 17.1711 20.814 17.1948 20.8056 17.2171ZM17.5736 26.4553V27.7064C17.574 27.7363 17.5862 27.7649 17.6076 27.7861C17.6291 27.8072 17.6581 27.8192 17.6884 27.8195H19.104C19.1343 27.8192 19.1633 27.8072 19.1847 27.786C19.2062 27.7649 19.2184 27.7363 19.2188 27.7064V26.4553C19.2187 26.4399 19.2125 26.4252 19.2015 26.4143C19.1905 26.4034 19.1755 26.3973 19.1599 26.3973H17.6326C17.617 26.3973 17.602 26.4034 17.5909 26.4143C17.5799 26.4252 17.5737 26.4399 17.5736 26.4553ZM9.81226 26.4553V27.7064C9.81226 27.7679 9.86471 27.8195 9.92702 27.8195H11.3426C11.3729 27.8192 11.4019 27.8072 11.4234 27.786C11.4448 27.7649 11.457 27.7363 11.4574 27.7064V26.4553C11.4573 26.4399 11.4511 26.4252 11.4401 26.4143C11.4291 26.4034 11.4141 26.3973 11.3985 26.3973H9.87118C9.85557 26.3973 9.8406 26.4034 9.82956 26.4143C9.81851 26.4252 9.81229 26.4399 9.81226 26.4553ZM28.9201 7.80493C28.1272 5.92191 23.7568 6.56068 21.5875 6.99647C21.5757 6.99873 21.5649 7.00456 21.5566 7.01313C21.5483 7.02171 21.5429 7.03263 21.5412 7.04436C21.5392 7.05606 21.541 7.06809 21.5462 7.07876C21.5515 7.08944 21.56 7.09823 21.5706 7.10392C21.8076 7.23524 22.0176 7.4093 22.1894 7.61702C22.196 7.62521 22.2048 7.63144 22.2147 7.63504C22.2247 7.63863 22.2355 7.63945 22.2459 7.63739C23.6403 7.38039 24.8648 7.25913 25.8528 7.28289C28.5892 7.34871 28.9969 8.38807 27.1067 10.337C26.5898 10.87 25.9202 11.4379 25.1208 12.0236C25.1124 12.0296 25.1058 12.0377 25.1016 12.0471C25.0975 12.0565 25.0961 12.0669 25.0975 12.077C25.0986 12.0872 25.1025 12.097 25.1087 12.1052C25.115 12.1133 25.1234 12.1197 25.133 12.1236L25.8198 12.4096C25.8398 12.4179 25.8613 12.4152 25.8786 12.4021C26.5823 11.8687 27.1815 11.3492 27.66 10.8558C28.7872 9.69367 29.2686 8.6325 28.9201 7.80493ZM24.4508 12.4954C24.1803 12.4155 23.9068 12.3794 23.6333 12.3872C22.9965 12.4052 22.5869 12.6337 22.0518 12.8992C22.0429 12.9038 22.0329 12.906 22.0228 12.9056C22.0127 12.9051 22.003 12.9021 21.9945 12.8968C21.9858 12.8917 21.9787 12.8844 21.9738 12.8757C21.9689 12.8671 21.9663 12.8573 21.9665 12.8473V9.47527C21.9665 8.3091 20.9998 7.35639 19.8166 7.35639H9.21442C8.03124 7.35639 7.06459 8.3091 7.06459 9.47527V19.6565C7.06467 19.67 7.05995 19.6831 7.05125 19.6935C7.04255 19.7039 7.03042 19.711 7.01697 19.7135C6.09128 19.8911 5.23552 20.011 4.46829 20.0702C2.45189 20.2258 1.10549 19.9857 0.816751 19.3001C0.577202 18.7313 1.09038 17.8537 2.17052 16.8115C3.15627 15.8602 4.59598 14.8119 6.3683 13.757C6.37708 13.7519 6.38435 13.7447 6.38935 13.7359C6.39435 13.7272 6.39691 13.7173 6.39676 13.7073V12.9664C6.39676 12.945 6.38595 12.9267 6.36709 12.9161C6.34824 12.9055 6.32666 12.9056 6.30793 12.9165C4.33099 14.0681 2.72341 15.2249 1.63517 16.275C0.322123 17.5421 -0.262486 18.7022 0.110917 19.589C0.542817 20.6147 2.1646 21.0041 4.5251 20.8219C6.33893 20.6819 8.86458 20.0507 11.2225 19.3288C11.2702 19.3143 11.3188 19.3025 11.3653 19.285C12.1185 19.0007 10.5511 17.0351 10.1583 16.4083C10.148 16.3918 10.1465 16.3731 10.1542 16.3552C10.162 16.3373 10.1766 16.3253 10.1959 16.3212C10.2156 16.3169 10.2366 16.3187 10.2614 16.3315L12.57 17.5216C13.083 17.786 13.6112 17.9549 14.1274 17.6976L22.8667 13.341C23.3794 13.0854 23.9172 13.0704 24.4527 13.2958L25.8359 13.8781C25.9574 13.9293 25.9567 14.0969 25.8364 14.1463C19.7709 16.7293 13.6467 19.9086 7.11239 21.1372C7.0989 21.1397 7.08671 21.1467 7.07796 21.1571C7.06921 21.1676 7.06446 21.1807 7.06453 21.1942V23.7212C7.06453 24.8873 8.03118 25.84 9.21436 25.84H19.8165C20.9997 25.84 21.9664 24.8873 21.9664 23.7212V16.6539C21.9664 16.6302 21.9799 16.61 22.0019 16.6006L26.1385 14.8391C26.8728 14.5272 26.8712 13.4954 26.1349 13.1855L25.2945 12.8317L25.2935 12.8313L24.4558 12.4973L24.4508 12.4954ZM16.9763 6.6443V2.8374C16.9763 2.82138 16.9822 2.80762 16.9937 2.7963C16.9991 2.79082 17.0056 2.78649 17.0128 2.78358C17.02 2.78067 17.0277 2.77924 17.0354 2.77939C17.3091 2.78028 17.537 2.77957 17.7696 2.55038C17.8432 2.47809 17.9016 2.39219 17.9414 2.29759C17.9813 2.203 18.0018 2.10158 18.0017 1.99916V0.780106C18.0017 0.350267 17.6463 0 17.2103 0H11.8209C11.3847 0 11.0293 0.350267 11.0293 0.780106V1.99916C11.0293 2.42894 11.3847 2.77921 11.8209 2.77921H11.9959C12.0283 2.77921 12.0547 2.8053 12.0547 2.83722V6.64424C12.0547 6.67622 12.0812 6.70225 12.1136 6.70225H12.7615C12.7771 6.70222 12.792 6.6961 12.8031 6.68523C12.8141 6.67435 12.8203 6.65962 12.8203 6.64424V2.83722C12.8203 2.80524 12.8468 2.77921 12.8792 2.77921H16.1517C16.1842 2.77921 16.2106 2.8053 16.2106 2.83722V6.64424C16.2106 6.67622 16.237 6.70225 16.2694 6.70225H16.9173C16.925 6.70227 16.9327 6.70078 16.9399 6.69788C16.947 6.69497 16.9535 6.69071 16.959 6.68533C16.9645 6.67995 16.9688 6.67355 16.9718 6.66651C16.9748 6.65947 16.9763 6.65193 16.9763 6.6443ZM12.8686 13.7921L12.866 13.7904C12.3215 13.4494 12.5541 13.0523 13.1955 13.2293L13.1977 13.2299L18.5578 14.4962C18.5823 14.5019 18.5997 14.5214 18.6025 14.5461C18.6054 14.5708 18.5929 14.5935 18.5702 14.6046L15.9299 15.8978C15.9204 15.9026 15.9097 15.9047 15.899 15.9039C15.8884 15.9031 15.8782 15.8994 15.8696 15.8932L12.8686 13.7921Z" fill="#0FAE13"/>
</svg>
